<svg width="33" height="32" viewBox="0 0 33 32" fill="none" xmlns="http://www.w3.org/2000/svg">
<path d="M7.7199 26.0254C6.90657 26.0254 6.14657 25.7454 5.5999 25.2254C4.90657 24.5721 4.57323 23.5854 4.69323 22.5188L5.18657 18.1988C5.2799 17.3854 5.77323 16.3054 6.34657 15.7188L17.2932 4.1321C20.0266 1.23876 22.8799 1.15876 25.7732 3.8921C28.6666 6.62543 28.7466 9.47876 26.0132 12.3721L15.0666 23.9588C14.5066 24.5588 13.4666 25.1188 12.6532 25.2521L8.3599 25.9854C8.13323 25.9988 7.93323 26.0254 7.7199 26.0254ZM21.5732 3.87876C20.5466 3.87876 19.6532 4.51876 18.7466 5.47876L7.7999 17.0788C7.53323 17.3588 7.22657 18.0254 7.17323 18.4121L6.6799 22.7321C6.62657 23.1721 6.73323 23.5321 6.97323 23.7588C7.21323 23.9854 7.57323 24.0654 8.01323 23.9988L12.3066 23.2654C12.6932 23.1988 13.3332 22.8521 13.5999 22.5721L24.5466 10.9854C26.1999 9.22543 26.7999 7.59876 24.3866 5.3321C23.3199 4.30543 22.3999 3.87876 21.5732 3.87876Z" fill="#1B1B1B"/>
<path d="M23.4532 14.6005C23.4265 14.6005 23.3865 14.6005 23.3598 14.6005C19.1998 14.1871 15.8532 11.0271 15.2132 6.89378C15.1332 6.34712 15.5065 5.84045 16.0532 5.74712C16.5998 5.66712 17.1065 6.04045 17.1998 6.58712C17.7065 9.81378 20.3198 12.2938 23.5732 12.6138C24.1198 12.6671 24.5198 13.1605 24.4665 13.7071C24.3998 14.2138 23.9598 14.6005 23.4532 14.6005Z" fill="#1B1B1B"/>
<path d="M28.3333 30.334H4.33325C3.78659 30.334 3.33325 29.8807 3.33325 29.334C3.33325 28.7873 3.78659 28.334 4.33325 28.334H28.3333C28.8799 28.334 29.3333 28.7873 29.3333 29.334C29.3333 29.8807 28.8799 30.334 28.3333 30.334Z" fill="#1B1B1B"/>
</svg>
