<svg width="25" height="24" viewBox="0 0 25 24" fill="none" xmlns="http://www.w3.org/2000/svg">
<path d="M11.3495 4.78544C11.9169 3.73813 13.4199 3.73821 13.9873 4.78557L20.4878 16.7865C21.0292 17.786 20.3055 19.0009 19.1689 19.0009H6.16617C5.02944 19.0009 4.3058 17.7858 4.84731 16.7864L11.3495 4.78544ZM13.168 9.5C13.168 9.22386 12.9441 9 12.668 9C12.3918 9 12.168 9.22386 12.168 9.5V13.5C12.168 13.7761 12.3918 14 12.668 14C12.9441 14 13.168 13.7761 13.168 13.5V9.5ZM13.418 15.75C13.418 15.3358 13.0822 15 12.668 15C12.2538 15 11.918 15.3358 11.918 15.75C11.918 16.1642 12.2538 16.5 12.668 16.5C13.0822 16.5 13.418 16.1642 13.418 15.75Z" fill="#EE4540"/>
</svg>
